<mxfile host="app.diagrams.net">
  <diagram name="Flujo ETL API Frutas" id="0I13Lk_FtrfK6AfcpRbV">
    <mxGraphModel dx="1186" dy="708" grid="1" gridSize="10" guides="1" tooltips="1" connect="1" arrows="1" fold="1" page="1" pageScale="1" pageWidth="850" pageHeight="1100">
      <root>
        <mxCell id="0" />
        <mxCell id="1" parent="0" />

        <!-- API -->
        <mxCell id="2" value="API de Frutas (GET)" style="rounded=1;whiteSpace=wrap;html=1;fillColor=#DAE8FC;strokeColor=#6C8EBF;" vertex="1" parent="1">
          <mxGeometry x="240" y="20" width="200" height="60" as="geometry" />
        </mxCell>

        <!-- Extracci贸n -->
        <mxCell id="3" value="Extracci贸n (extract.py)" style="rounded=1;whiteSpace=wrap;html=1;fillColor=#E1D5E7;strokeColor=#9673A6;" vertex="1" parent="1">
          <mxGeometry x="240" y="100" width="200" height="60" as="geometry" />
        </mxCell>

        <!-- Transformaci贸n -->
        <mxCell id="4" value="Transformaci贸n (transform.py)" style="rounded=1;whiteSpace=wrap;html=1;fillColor=#FFF2CC;strokeColor=#D6B656;" vertex="1" parent="1">
          <mxGeometry x="240" y="180" width="200" height="60" as="geometry" />
        </mxCell>

        <!-- Carga -->
        <mxCell id="5" value="Carga (load.py)" style="rounded=1;whiteSpace=wrap;html=1;fillColor=#D5E8D4;strokeColor=#82B366;" vertex="1" parent="1">
          <mxGeometry x="240" y="260" width="200" height="60" as="geometry" />
        </mxCell>

        <!-- Base de Datos -->
        <mxCell id="6" value="Base de Datos (SQLite)" style="shape=cylinder;whiteSpace=wrap;html=1;fillColor=#F8CECC;strokeColor=#B85450;" vertex="1" parent="1">
          <mxGeometry x="240" y="340" width="200" height="60" as="geometry" />
        </mxCell>

        <!-- Flechas -->
        <mxCell id="7" style="endArrow=block;html=1;" edge="1" parent="1" source="2" target="3">
          <mxGeometry relative="1" as="geometry" />
        </mxCell>
        <mxCell id="8" style="endArrow=block;html=1;" edge="1" parent="1" source="3" target="4">
          <mxGeometry relative="1" as="geometry" />
        </mxCell>
        <mxCell id="9" style="endArrow=block;html=1;" edge="1" parent="1" source="4" target="5">
          <mxGeometry relative="1" as="geometry" />
        </mxCell>
        <mxCell id="10" style="endArrow=block;html=1;" edge="1" parent="1" source="5" target="6">
          <mxGeometry relative="1" as="geometry" />
        </mxCell>
      </root>
    </mxGraphModel>
  </diagram>
</mxfile>